<?xml version="1.0" encoding="UTF-8" standalone="no"?>
<svg version="1.2" xmlns="http://www.w3.org/2000/svg" viewBox="0 0 277 277" width="277" height="277"><style>.a{opacity:1;fill:#d43c18}.b{opacity:.5;fill:#d43c18}.c{opacity:.4;fill:#d43c18}.d{opacity:.8;fill:#d43c18}.e{opacity:1;fill:#f8b510}.f{opacity:.4;fill:#f8b510}.g{opacity:.3;fill:#f8b510}.h{opacity:.2;fill:#f8b510}</style><path class="a" d="m266.9 8.6c-4.1 4.2-9.9 9.6-12.9 11.9-3 2.3-8.6 6.1-12.5 8.4-3.8 2.3-11 5.5-16 7.1-4.9 1.6-13.3 3.7-18.5 4.6-7.4 1.3-13 1.5-25.5 1.1-10.8-0.4-25-2-43.5-4.7-15.1-2.2-33.6-4.3-41-4.7-8.7-0.4-17-0.1-23.5 0.7-5.5 0.7-12.7 2-16 3-3.3 0.9-9.4 3.2-13.5 5-4.1 1.8-10 5-13 7-3 2.1-7.6 6-10.1 8.7-2.5 2.6-5.9 6.6-7.6 8.8-1.7 2.2-3.7 5.3-4.6 7-0.8 1.7-2.5 5.9-3.7 9.5-1.2 3.6-2.6 9.9-3 14-0.5 4.5-0.5 10.7 0.1 15.5 0.6 4.4 2 10.3 3.2 13 1.1 2.8 3.6 7.4 5.4 10.3 1.8 2.8 6 7.9 9.3 11.2 3.3 3.3 9.3 7.8 13.3 10 3.9 2.2 9.3 4.5 12 5.2 2.6 0.7 4.7 1.7 4.7 2.3 0.1 0.6 0.6 0.1 1.2-1 0.7-1.2 1.4-13.2 1.9-31.5 0.4-16.2 1.2-30.8 1.7-32.5 0.5-1.7 1.6-4.3 2.4-6 0.9-1.7 3.7-5.2 6.4-7.8 2.7-2.7 7.8-6.3 11.4-8.1 3.6-1.8 9-3.6 12-4 3.4-0.5 19.8 0.2 43.5 1.9 27.6 2 42.4 2.6 54 2.2 12.3-0.3 17.7-1 23.3-2.6 3.9-1.1 9.6-3.3 12.5-4.7 2.8-1.5 9-5.3 13.7-8.4 4.7-3.2 11.9-9.4 16-13.7 4.2-4.3 9.4-10.5 11.6-13.8 2.3-3.3 5.4-8.5 6.9-11.5 1.5-3 3.8-8.3 5.1-11.8 1.3-3.4 2.4-6.9 2.4-7.7 0-0.8-0.4-1.5-0.8-1.5-0.5 0-4.2 3.4-8.3 7.6z"/><path class="b" d="m83 31.7c3.6 0.2 9.7 0.2 13.5 0 3.8-0.2 0.9-0.3-6.5-0.3-7.4 0-10.6 0.1-7 0.3z"/><path class="c" d="m168.4 40.7c1.6 0.2 3.9 0.2 5 0 1.2-0.2-0.2-0.4-2.9-0.4-2.8 0-3.7 0.2-2.1 0.4z"/><path class="c" d="m182.5 41.7c3.3 0.2 8.3 0.2 11 0 2.8-0.2 0.1-0.3-6-0.3-6.1 0-8.3 0.1-5 0.3z"/><path class="d" d="m91 72.7c2.5 0.2 6.1 0.2 8 0 1.9-0.2-0.1-0.4-4.5-0.4-4.4 0-6 0.2-3.5 0.4z"/><path class="e" d="m212 118.1c-3 1.1-10.4 2.9-16.5 4.2-9.9 2-13.6 2.2-37.5 2-14.6-0.1-36.2-0.8-48-1.6-11.8-0.8-21.9-1.2-22.3-0.8-0.4 0.3-1 14.1-1.3 30.6-0.2 16.5-0.6 34.1-0.8 39-0.3 4.9-1.2 12.4-2.1 16.5-0.9 4.1-3.2 11.6-5.1 16.5-2 4.9-6.1 12.8-9.2 17.5-3.1 4.7-9.7 12.5-14.7 17.4-4.9 4.8-10.7 9.9-12.8 11.2-2 1.3-3.7 3.1-3.7 3.9 0 1.1 1.1 1.5 4 1.5 2.2 0 4-0.3 4-0.7 0-0.5 4.8-2.1 10.7-3.6 6-1.5 13.7-4 17.3-5.6 3.6-1.5 10.3-5.5 15-8.8 4.7-3.4 10.6-8.5 13.1-11.4 2.5-3 6.2-7.9 8.1-10.9 2-3 4.7-8.3 6.2-11.7 1.4-3.5 3.5-10 4.6-14.5 1.3-5.4 2.4-15.2 3.1-27.8 0.6-10.7 1.3-20.2 1.6-21 0.3-1.2 1.2-1.3 4.1-0.8 2 0.4 9.5 1.2 16.7 1.8 8.9 0.8 15.7 0.8 21.5 0.1 5.9-0.7 11.3-2.2 17.5-4.8 6.6-2.8 10.8-5.5 16.4-10.3 5.8-5.1 8.3-8.3 11.7-14.5 2.3-4.4 4.5-9.7 4.8-11.7 0.3-2.1 0.2-3.8-0.2-3.7-0.4 0-3.2 0.9-6.2 2z"/><path class="f" d="m91.8 121.3c0.4 0.4 5 0.6 10.2 0.5l9.5-0.3c-15.8-0.8-20.1-0.7-19.7-0.2z"/><path class="g" d="m118.5 122.7c1.7 0.2 4.8 0.2 7 0 2.2-0.2 0.8-0.4-3-0.4-3.8 0-5.7 0.2-4 0.4z"/><path class="h" d="m140.5 123.7c1.7 0.2 4.6 0.2 6.5 0 1.9-0.2 0.6-0.4-3-0.4-3.6 0-5.2 0.2-3.5 0.4z"/><path class="h" d="m156.5 124.7c3.3 0.2 8.3 0.2 11 0 2.8-0.2 0.1-0.3-6-0.3-6.1 0-8.3 0.1-5 0.3z"/></svg>
