<?xml version="1.0" standalone="no"?>
<!DOCTYPE svg PUBLIC "-//W3C//DTD SVG 20010904//EN"
 "http://www.w3.org/TR/2001/REC-SVG-20010904/DTD/svg10.dtd">
<svg version="1.0" xmlns="http://www.w3.org/2000/svg"
 width="220.000000pt" height="220.000000pt" viewBox="0 0 220.000000 220.000000"
 preserveAspectRatio="xMidYMid meet">
<metadata>
Created by potrace 1.14, written by Peter Selinger 2001-2017
</metadata>
<g transform="translate(0.000000,220.000000) scale(0.100000,-0.100000)"
fill="#000000" stroke="none">
<path d="M1910 2102 c-8 -3 -23 -14 -35 -25 -40 -39 -98 -76 -108 -70 -5 3 -7
1 -4 -4 7 -12 -62 -41 -117 -50 -20 -3 -36 -9 -36 -12 0 -4 -24 -8 -52 -8 -29
-1 -55 -2 -58 -3 -3 -1 -23 -1 -45 0 -131 7 -208 19 -217 33 -6 9 -8 9 -8 0 0
-7 -5 -13 -11 -13 -5 0 -8 3 -6 8 3 4 -7 7 -21 7 -15 1 -47 4 -72 8 -25 4 -63
10 -85 13 -22 3 -43 11 -47 18 -5 7 -8 6 -8 -4 0 -9 -3 -11 -8 -5 -4 6 -25 10
-47 10 -22 -1 -44 1 -50 4 -10 5 -94 3 -150 -3 -37 -4 -137 -36 -150 -47 -5
-5 -15 -9 -22 -9 -13 0 -38 -18 -75 -52 -10 -10 -20 -18 -23 -18 -9 0 -41 -36
-48 -54 -4 -9 -11 -15 -15 -12 -5 3 -9 0 -9 -7 0 -20 -34 -67 -44 -61 -5 3 -6
-1 -4 -9 3 -7 -1 -29 -9 -49 -8 -19 -12 -38 -9 -42 4 -3 1 -6 -5 -6 -7 0 -12
-12 -12 -26 0 -14 -4 -23 -8 -20 -5 3 -7 -8 -4 -23 2 -16 -1 -39 -8 -51 -10
-18 -9 -21 1 -15 8 6 10 4 4 -5 -10 -15 -10 -174 0 -189 3 -6 0 -11 -7 -11
-10 0 -10 -2 1 -9 8 -6 12 -20 9 -39 -2 -17 -1 -29 4 -26 7 5 9 0 8 -21 0 -3
6 -18 15 -34 11 -23 12 -31 2 -34 -7 -4 -6 -6 4 -6 9 -1 22 -14 29 -31 7 -16
21 -39 31 -51 10 -12 16 -26 12 -32 -3 -5 -1 -7 5 -3 6 3 17 -2 24 -11 7 -10
26 -24 41 -32 15 -8 26 -20 23 -26 -2 -7 2 -12 10 -12 7 0 11 4 8 9 -3 4 5 8
16 8 13 0 24 8 27 20 3 11 8 18 12 16 4 -3 7 20 6 50 0 30 3 54 7 54 5 0 8 5
8 11 0 5 -4 7 -10 4 -14 -9 -12 8 3 24 9 11 9 13 0 7 -9 -5 -12 0 -10 16 1 13
9 26 17 30 12 5 11 7 -3 7 -10 1 -16 5 -13 9 3 5 6 38 7 73 1 42 7 71 18 84
15 18 15 19 -1 6 -16 -12 -17 -9 -12 30 3 24 11 47 17 51 9 6 9 8 0 8 -20 0
-15 30 5 30 14 0 15 2 2 10 -13 8 -13 11 -1 22 11 11 13 11 6 -1 -5 -9 -4 -12
3 -7 6 4 9 12 7 19 -6 16 21 51 34 43 5 -4 12 -2 15 3 4 5 1 13 -5 17 -8 5 -9
3 -4 -6 5 -9 4 -11 -4 -6 -9 6 -9 11 0 22 14 17 23 19 13 2 -4 -7 -3 -8 4 -4
7 4 12 15 12 24 0 14 2 14 9 3 7 -11 10 -9 16 8 3 12 10 19 15 16 5 -3 10 0
12 7 4 11 14 14 77 24 19 2 38 7 44 11 6 3 7 1 4 -4 -4 -6 0 -14 9 -17 9 -3
12 -2 9 5 -9 13 27 8 37 -6 5 -6 8 -6 8 1 0 11 40 11 59 0 5 -3 12 0 15 6 3 7
4 0 1 -17 -4 -28 -4 -28 7 -8 8 17 19 22 47 21 20 0 42 -5 49 -11 8 -6 12 -6
12 2 0 7 5 9 11 5 6 -3 43 -8 81 -9 41 -2 74 -8 78 -15 6 -9 9 -9 12 1 4 12 8
11 23 -1 10 -8 16 -10 12 -4 -9 15 75 15 85 0 5 -7 8 -7 8 2 0 6 7 12 15 12 8
0 15 -4 15 -10 0 -5 5 -10 11 -10 5 0 7 5 4 10 -3 6 1 10 9 10 8 0 18 -5 21
-11 5 -7 13 -5 25 6 18 16 46 12 35 -5 -3 -5 -1 -11 4 -15 6 -3 8 3 6 14 -3
16 5 21 46 31 27 7 49 16 49 22 0 5 4 7 9 3 6 -3 8 -14 6 -25 -2 -12 0 -18 5
-15 5 3 7 17 4 30 -3 17 0 25 9 25 8 0 30 14 48 30 25 22 41 29 59 25 22 -5
23 -4 6 6 -17 10 -16 12 10 30 16 10 25 19 21 19 -4 0 2 11 15 25 38 40 48 53
60 82 7 15 17 31 23 35 5 4 10 13 11 20 3 34 5 39 13 33 6 -3 6 6 1 25 -9 33
-10 36 -10 49 0 12 -22 19 -40 13z"/>
<path d="M1840 1760 c-9 -6 -10 -10 -3 -10 6 0 15 5 18 10 8 12 4 12 -15 0z"/>
<path d="M1750 1725 c0 -8 2 -15 4 -15 2 0 6 7 10 15 3 8 1 15 -4 15 -6 0 -10
-7 -10 -15z"/>
<path d="M1705 1700 c-3 -6 1 -7 9 -4 18 7 21 14 7 14 -6 0 -13 -4 -16 -10z"/>
<path d="M810 1666 c0 -2 7 -7 16 -10 8 -3 12 -2 9 4 -6 10 -25 14 -25 6z"/>
<path d="M946 1662 c-3 -5 1 -9 9 -9 8 0 12 4 9 9 -3 4 -7 8 -9 8 -2 0 -6 -4
-9 -8z"/>
<path d="M772 1651 c-11 -6 -10 -10 0 -19 11 -8 14 -7 14 9 0 10 0 19 -1 19 0
0 -6 -4 -13 -9z"/>
<path d="M1051 1651 c-8 -5 -9 -11 -3 -15 5 -3 12 1 16 9 6 17 6 18 -13 6z"/>
<path d="M1150 1640 c0 -5 5 -10 11 -10 5 0 7 5 4 10 -3 6 -8 10 -11 10 -2 0
-4 -4 -4 -10z"/>
<path d="M1186 1642 c-3 -5 1 -9 9 -9 8 0 12 4 9 9 -3 4 -7 8 -9 8 -2 0 -6 -4
-9 -8z"/>
<path d="M810 1626 c0 -2 7 -7 16 -10 8 -3 12 -2 9 4 -6 10 -25 14 -25 6z"/>
<path d="M1307 1619 c7 -7 15 -10 18 -7 3 3 -2 9 -12 12 -14 6 -15 5 -6 -5z"/>
<path d="M1366 1622 c-3 -5 1 -9 9 -9 8 0 12 4 9 9 -3 4 -7 8 -9 8 -2 0 -6 -4
-9 -8z"/>
<path d="M1487 1619 c7 -7 15 -10 18 -7 3 3 -2 9 -12 12 -14 6 -15 5 -6 -5z"/>
<path d="M1610 1620 c0 -5 5 -10 11 -10 5 0 7 5 4 10 -3 6 -8 10 -11 10 -2 0
-4 -4 -4 -10z"/>
<path d="M1035 1609 c-4 -6 -5 -12 -2 -15 2 -3 7 2 10 11 7 17 1 20 -8 4z"/>
<path d="M631 1533 c-1 -17 16 -25 25 -12 4 7 3 9 -4 5 -5 -3 -13 0 -15 6 -4
9 -6 10 -6 1z"/>
<path d="M1677 1363 c-5 -5 -40 -12 -92 -19 -22 -3 -46 -7 -52 -9 -7 -3 -13 1
-13 8 0 9 -2 9 -8 0 -8 -13 -41 -11 -64 3 -6 4 -8 3 -5 -3 4 -6 -19 -9 -58 -9
-34 1 -61 4 -58 9 2 4 -1 7 -6 7 -6 0 -11 -4 -11 -8 0 -4 -30 -6 -67 -5 -336
15 -368 15 -395 -6 -30 -24 -37 -55 -39 -166 -1 -44 -6 -86 -13 -94 -9 -12 -8
-13 2 -7 11 6 13 1 11 -25 -2 -19 -8 -37 -14 -41 -6 -5 -5 -8 3 -8 6 0 12 -7
12 -16 0 -11 -6 -14 -17 -10 -16 5 -16 4 -3 -6 18 -15 22 -58 6 -58 -6 0 -6
-4 2 -9 17 -11 17 -21 0 -32 -10 -7 -10 -9 0 -9 10 0 10 -5 1 -21 -6 -12 -7
-19 -2 -16 5 3 8 -6 6 -21 -1 -15 -5 -49 -7 -75 -3 -26 -9 -53 -12 -59 -4 -6
-9 -30 -10 -52 -2 -23 -8 -42 -14 -44 -5 -2 -8 -8 -5 -13 4 -5 0 -23 -8 -41
-15 -32 -22 -53 -27 -73 -1 -5 -11 -22 -21 -37 -10 -14 -19 -31 -19 -38 0 -6
-5 -8 -12 -4 -6 4 -8 3 -5 -3 9 -14 -114 -169 -124 -158 -2 2 -5 -14 -6 -36
-2 -21 2 -40 7 -40 6 -1 18 -2 28 -3 9 -1 23 -5 31 -10 10 -6 12 -5 7 2 -4 7
-4 12 1 13 23 2 43 9 81 27 23 11 42 16 42 11 0 -5 4 -9 10 -9 5 0 7 7 4 15
-4 11 -2 13 9 10 8 -4 17 1 20 10 9 22 49 35 67 21 13 -10 13 -9 1 7 -11 14
-11 21 -3 29 9 9 12 9 12 0 0 -7 5 -12 11 -12 5 0 7 5 4 10 -9 15 14 40 31 33
10 -4 12 0 8 11 -4 10 0 18 10 22 9 3 13 10 10 15 -3 5 0 9 6 9 6 0 15 11 22
25 6 13 16 22 21 18 6 -4 8 0 4 11 -4 9 -3 14 2 11 5 -3 11 5 13 17 2 14 9 23
20 22 12 -1 15 5 12 22 -2 13 2 37 10 52 8 15 17 44 21 65 4 20 15 42 24 47 9
5 11 10 4 10 -8 0 -11 9 -9 23 3 12 5 30 5 40 1 10 6 15 11 12 6 -4 7 -11 4
-17 -4 -7 -2 -8 5 -4 9 6 9 11 0 23 -16 18 -13 81 4 102 7 8 7 12 1 8 -7 -4
-10 6 -10 28 1 19 6 33 11 31 6 -2 9 -9 7 -15 -1 -7 2 -9 9 -5 9 5 5 13 -10
26 -13 10 -18 18 -13 18 6 0 9 9 7 21 -3 17 0 20 15 16 11 -3 18 -1 14 4 -3 5
-11 9 -19 9 -17 0 -12 77 6 94 9 8 10 7 6 -7 -5 -14 -3 -16 11 -8 9 5 40 7 67
4 28 -3 71 -6 97 -6 26 -1 44 -5 41 -10 -3 -5 4 -4 16 2 16 9 26 9 42 0 15 -8
19 -8 15 0 -4 7 1 11 13 11 10 0 27 3 37 7 13 5 15 3 10 -8 -4 -8 0 -5 8 5 9
11 16 17 16 13 0 -4 10 -2 23 5 12 7 24 13 27 13 15 2 90 50 90 59 0 5 3 7 6
3 4 -3 20 9 37 28 16 19 35 32 40 28 6 -3 7 -1 3 5 -4 6 2 20 14 32 11 11 20
23 20 28 0 4 4 7 9 7 5 0 13 4 18 9 4 5 3 6 -4 2 -6 -3 -14 -2 -18 4 -3 5 -1
10 4 10 12 0 15 59 3 76 -7 10 -86 16 -95 7z"/>
<path d="M593 1315 c0 -8 4 -12 9 -9 4 3 8 9 8 15 0 5 -4 9 -8 9 -5 0 -9 -7
-9 -15z"/>
<path d="M1796 1233 c-6 -14 -5 -15 5 -6 7 7 10 15 7 18 -3 3 -9 -2 -12 -12z"/>
<path d="M1570 1065 c0 -5 5 -17 10 -25 5 -8 10 -10 10 -5 0 6 -5 17 -10 25
-5 8 -10 11 -10 5z"/>
<path d="M1525 1037 c-15 -12 -16 -15 -4 -22 8 -5 11 -5 7 0 -4 4 0 14 10 21
23 18 11 18 -13 1z"/>
<path d="M355 1029 c-4 -6 -5 -12 -2 -15 2 -3 7 2 10 11 7 17 1 20 -8 4z"/>
<path d="M1150 1025 c0 -7 30 -13 34 -7 3 4 -4 9 -15 9 -10 1 -19 0 -19 -2z"/>
<path d="M1210 1020 c0 -5 5 -10 11 -10 5 0 7 5 4 10 -3 6 -8 10 -11 10 -2 0
-4 -4 -4 -10z"/>
<path d="M1275 1011 c-3 -5 -2 -12 3 -15 5 -3 9 1 9 9 0 17 -3 19 -12 6z"/>
<path d="M1113 993 c0 -9 4 -10 12 -3 7 5 15 7 18 3 4 -3 7 -1 7 5 0 6 -8 10
-18 9 -10 0 -19 -7 -19 -14z"/>
<path d="M1315 1001 c-3 -5 -2 -12 3 -15 5 -3 9 1 9 9 0 17 -3 19 -12 6z"/>
<path d="M1375 1000 c3 -5 8 -10 11 -10 2 0 4 5 4 10 0 6 -5 10 -11 10 -5 0
-7 -4 -4 -10z"/>
<path d="M1353 985 c0 -8 4 -12 9 -9 5 3 6 10 3 15 -9 13 -12 11 -12 -6z"/>
<path d="M1136 898 c3 -5 10 -6 15 -3 13 9 11 12 -6 12 -8 0 -12 -4 -9 -9z"/>
<path d="M1115 769 c-4 -6 -5 -12 -2 -15 2 -3 7 2 10 11 7 17 1 20 -8 4z"/>
<path d="M1055 460 c-3 -5 -1 -10 4 -10 6 0 11 5 11 10 0 6 -2 10 -4 10 -3 0
-8 -4 -11 -10z"/>
<path d="M1025 360 c-3 -6 1 -7 9 -4 18 7 21 14 7 14 -6 0 -13 -4 -16 -10z"/>
<path d="M870 257 c0 -2 6 -10 14 -16 11 -9 16 -9 22 1 4 7 4 10 -1 6 -4 -4
-14 -3 -22 3 -7 6 -13 9 -13 6z"/>
<path d="M797 189 c7 -7 15 -10 18 -7 3 3 -2 9 -12 12 -14 6 -15 5 -6 -5z"/>
<path d="M775 151 c-3 -5 -2 -12 3 -15 5 -3 9 1 9 9 0 17 -3 19 -12 6z"/>
<path d="M708 133 c6 -2 9 -10 6 -15 -4 -7 -2 -8 5 -4 13 9 5 26 -12 25 -9 0
-8 -2 1 -6z"/>
<path d="M620 105 c0 -7 30 -13 34 -7 3 4 -4 9 -15 9 -10 1 -19 0 -19 -2z"/>
</g>
</svg>
